<?xml version="1.0" standalone="no"?>
<!DOCTYPE svg PUBLIC "-//W3C//DTD SVG 20010904//EN"
 "http://www.w3.org/TR/2001/REC-SVG-20010904/DTD/svg10.dtd">
<svg version="1.0" xmlns="http://www.w3.org/2000/svg"
 width="1120.000000pt" height="1200.000000pt" viewBox="0 0 1120.000000 1200.000000"
 preserveAspectRatio="xMidYMid meet">

<g transform="translate(0.000000,1200.000000) scale(0.100000,-0.100000)"
fill="#00DDFF" stroke="none">
<path d="M15 11968 c9 -18 335 -717 724 -1553 l709 -1520 4152 0 4152 0 723
1550 723 1550 -716 3 c-394 1 -719 -1 -723 -5 -3 -5 -194 -412 -424 -905
l-419 -898 -3316 0 -3316 0 -422 903 -421 902 -720 3 -721 2 15 -32z"/>
<path d="M2891 8023 c-819 -2 -1032 -6 -1028 -16 6 -15 1736 -3726 2865 -6147
474 -1014 865 -1846 870 -1848 4 -1 47 80 94 180 1656 3544 3649 7821 3645
7824 -5 5 -5360 11 -6446 7z m4407 -1302 c-15 -43 -1694 -3631 -1698 -3631 -5
0 -1683 3589 -1698 3631 -2 5 658 9 1698 9 1030 0 1700 -4 1698 -9z"/>
</g>
</svg>
